<svg xmlns="http://www.w3.org/2000/svg" viewBox="0 0 1024 1328">

<g font-family="Consolas" text-anchor="middle" fill="#fff">
<g transform="translate(0 0)">
  <rect y="0" width="16" height="16" fill="#661166"/>
  <text x="8" y="12" font-size="12">16</text>
</g>

<g transform="translate(0 16)">
  <rect width="24" height="24" fill="#661166"/>
  <text x="12" y="17.3" font-size="16">24</text>
</g>

<g transform="translate(0 40)">
  <rect width="32" height="32" fill="#661166"/>
  <text x="16" y="23.8" font-size="24">32</text>
</g>

<g transform="translate(0 72)">
  <rect width="48" height="48" fill="#661166"/>
  <text x="24" y="34.7" font-size="32">48</text>
</g>

<g transform="translate(0 120)">
  <rect width="64" height="64" fill="#661166"/>
  <text x="32" y="44" font-size="36">64</text>
</g>

<g transform="translate(0 184)">
  <rect width="72" height="72" fill="#661166"/>
  <text x="36" y="48.5" font-size="38">72</text>
</g>

<g transform="translate(0 256)">
  <rect width="80" height="80" fill="#661166"/>
  <text x="40" y="53" font-size="40">80</text>
</g>

<g transform="translate(0 336)">
  <rect width="96" height="96" fill="#661166"/>
  <text x="48" y="62.5" font-size="44">96</text>
</g>

<g transform="translate(0 432)">
  <rect width="128" height="128" fill="#661166"/>
  <text x="64" y="79" font-size="45">128</text>
</g>

<g transform="translate(0 560)">
  <rect width="256" height="256" fill="#661166"/>
  <text x="128" y="157" font-size="90">256</text>
</g>

<g transform="translate(512 0)">
  <rect width="512" height="512" fill="#661166"/>
  <text x="256" y="315" font-size="180">512</text>
</g>

</g>
<line x1="0" x2="1024" y1="1500" y2="1500" stroke-width="0.5" stroke="red"/>

</svg>
